<svg xmlns="http://www.w3.org/2000/svg" width="32" height="32" fill="none"><path fill="#fff" fill-opacity=".5" d="m12.805 4.681 1.271-1.316c.912-1.053 2.665-1.273 3.783-.082l13.463 14.349a2.498 2.498 0 0 1-.592 3.886l-13.463 7.667c-.928.528-1.982.4-2.741-.145L1.27 21.492a2.498 2.498 0 0 1-.592-3.887 1.618 1.618 0 0 1 1.982-.294l11.866 6.776v-5.09l-7.742-4.393a1.944 1.944 0 0 1-.456-3.02l.001-.001.002-.002a1.978 1.978 0 0 1 2.421-.358l5.774 3.246V9.556l-1.837-1.148c-1.125-.644-2.14-1.322-1.255-2.265l1.37-1.462z"/></svg>